<?xml version="1.0" encoding="UTF-8" standalone="no"?>
<svg
   id="Layer_1"
   data-name="Layer 1"
   width="200"
   height="200"
   viewBox="0 0 200 200"
   version="1.1"
   sodipodi:docname="logo.svg"
   inkscape:export-filename="logo.png"
   inkscape:export-xdpi="96"
   inkscape:export-ydpi="96"
   inkscape:version="1.2.2 (b0a8486541, 2022-12-01)"
   xmlns:inkscape="http://www.inkscape.org/namespaces/inkscape"
   xmlns:sodipodi="http://sodipodi.sourceforge.net/DTD/sodipodi-0.dtd"
   xmlns="http://www.w3.org/2000/svg"
   xmlns:svg="http://www.w3.org/2000/svg">
  <sodipodi:namedview
     id="namedview130"
     pagecolor="#ffffff"
     bordercolor="#000000"
     borderopacity="0.25"
     inkscape:showpageshadow="2"
     inkscape:pageopacity="0.0"
     inkscape:pagecheckerboard="0"
     inkscape:deskcolor="#d1d1d1"
     showgrid="false"
     inkscape:zoom="4.21"
     inkscape:cx="100"
     inkscape:cy="100"
     inkscape:window-width="1920"
     inkscape:window-height="1012"
     inkscape:window-x="0"
     inkscape:window-y="32"
     inkscape:window-maximized="1"
     inkscape:current-layer="Layer_1" />
  <defs
     id="defs111">
    <style
       id="style109">.cls-1{fill:#ff7f2a;}.cls-2{fill:#08a;}.cls-3{fill:#37c871;}.cls-4{fill:none;}</style>
  </defs>
  <title
     id="title113">indian_institute_of-science_logo-freelogovectors.net_</title>
  <g
     id="g70">
    <path
       id="path50"
       class="cls-1"
       d="M93.66,18.91c-.61.59-2.16,2.05-3.42,3.25A113.67,113.67,0,0,0,69.53,48.78l-.64,1.15,1.7-1.63c9.4-9.09,18.11-16.09,23.69-19l.68-.36,1.48,1.52a102.5,102.5,0,0,1,22.7,35.67c.52,1.39,1,2.57,1,2.63a40.42,40.42,0,0,0,4.4,0l4.27-.09-.1-.5c-.15-.79-2.52-7.13-3.43-9.2a131.36,131.36,0,0,0-6.94-13.56,114.12,114.12,0,0,0-16-20.57c-2.26-2.33-7.21-6.95-7.43-6.95a6.63,6.63,0,0,0-1.29,1.06Z" />
    <path
       id="path52"
       class="cls-2"
       d="M131.33,54.08a18.85,18.85,0,0,0-2.28.17,6.85,6.85,0,0,0,.68,1.56c.7,1.37,2.53,5.31,2.7,5.77.06.17.74.21,4.6.22A121.39,121.39,0,0,1,157,63.42c2.36.4,2.7.51,3.39,1.19,1,1,1.05,2,.14,4.37-.84,2.12-1.77,4.21-2.83,6.39-.83,1.73-.93,2-.71,2,.49,0,6.14-5,8.22-7.29,3.12-3.42,6.1-7.25,6.48-8.35.57-1.57,0-2.7-1.61-3.42-2.3-1-11.93-2.84-19.32-3.63A156.64,156.64,0,0,0,131.33,54.08Z" />
    <path
       id="path54"
       class="cls-3"
       d="M47,54.23a138.84,138.84,0,0,0-24.88,3.44c-2.72.64-3.35,1-4,2.21A2.86,2.86,0,0,0,18,62.15,109.44,109.44,0,0,0,32,92a41.08,41.08,0,0,0,2.44,3.45,5.46,5.46,0,0,0-.25-1C33,90.61,31.33,84,30.42,79.63,28,67.71,28,65.1,30.57,64c1-.42,6.81-1.24,11.94-1.69A127,127,0,0,1,84.28,65.9c3.1.79,8.4,2.45,11.47,3.61,1.59.6,3,1.12,3.2,1.16a17.62,17.62,0,0,0,2.31-.22c3-.41,5.93-.67,9.61-.83l3.65-.18.37,0-.44-.22L112.11,68A133.77,133.77,0,0,0,66.85,54.85,157.1,157.1,0,0,0,47,54.23Z" />
    <path
       id="path56"
       class="cls-2"
       d="M73.78,70.14A120.61,120.61,0,0,0,55.68,82.3a118.05,118.05,0,0,0-22.83,24.54A120,120,0,0,0,25.06,120l-1,2.12A116.51,116.51,0,0,0,19,134.94c-1.07,3.38-1.18,3.89-1,4.65a3.06,3.06,0,0,0,1.42,1.91,17.5,17.5,0,0,0,3.47,1,133.78,133.78,0,0,0,29.93,3.42c3.27,0,7.7-.14,7.59-.23s-1.19-.27-2.57-.53A109.36,109.36,0,0,1,40,140.37c-5-1.79-9.37-4-10.43-5.11-1.28-1.39-1.16-2.18,1.19-7.54a102.93,102.93,0,0,1,10.62-18.59,126.11,126.11,0,0,1,8.6-10.44c.09-.08.49-.5.89-.94A110.41,110.41,0,0,1,60,89.18a118.71,118.71,0,0,1,25.43-16,24,24,0,0,0,2.25-1.09c0-.2-5-1.78-8.18-2.6-3.37-.84-3-.9-5.73.67Z" />
    <path
       id="path58"
       d="M141.68,85.82c-3.7.54-6.32,2.45-7.45,5.42a6,6,0,0,0-.4,2.83,7,7,0,0,0,2.52,6c1.62,1.5,2.53,2,8.76,4.76a10,10,0,0,1,3.3,1.89,3.61,3.61,0,0,1,1.39,3.5c-.15,2.22-1.64,3.73-4.17,4.22a11.09,11.09,0,0,1-4.46-.27c-2.49-.87-4.38-3.08-5.41-6.29l-.35-1.15-2.12-.08v9.43l1.09,0,1.07,0,.29-1a2.59,2.59,0,0,1,.4-1,2.65,2.65,0,0,1,.64.41c2.4,1.94,6.54,2.74,10.66,2.1,4.62-.72,7.74-3.27,8.65-7.07a13.76,13.76,0,0,0,0-4.25,7.83,7.83,0,0,0-2.35-3.74c-1.79-1.63-4.17-2.92-9.7-5.24-3.73-1.55-4.62-2.41-4.62-4.43a3.19,3.19,0,0,1,.36-1.69,4.45,4.45,0,0,1,2.52-2,10.86,10.86,0,0,1,4.06,0,8.18,8.18,0,0,1,5.74,5.64l.18.7h2.14l-.06-4c0-2.18-.09-4.06-.12-4.15s-.41-.17-1.17-.17c-1.08,0-1.11,0-1.2.37-.43,1.6-.43,1.6-1.17,1.08a11.86,11.86,0,0,0-3.46-1.45A21.24,21.24,0,0,0,141.68,85.82Z" />
    <path
       id="path60"
       d="M86.22,87.28v.83l1.16.08a4.08,4.08,0,0,1,2.77.92c.67.73.71,1.46.65,12.66,0,9.81-.06,10.46-.32,11-.51,1-1.26,1.42-3.25,1.61l-1,.09v1.66h17v-1.66l-1.22-.13c-2.42-.28-3-.81-3.27-2.88-.08-.78-.13-5-.1-11.22l0-10,.37-.68c.49-.91,1.31-1.3,3-1.39l1.19-.08V86.44h-17Z" />
    <path
       id="path62"
       d="M109.75,87.28v.83l1.24.08c2.06.13,2.91.67,3.23,2,.12.52.15,3.77.12,11.48l0,10.77-.36.55a2.66,2.66,0,0,1-.89.85,8.33,8.33,0,0,1-2.8.57h-.5v1.7h17v-1.66l-.9-.08c-2.25-.22-3.11-.74-3.42-2-.12-.52-.15-3.8-.12-11.62,0-10.64,0-10.91.34-11.38.43-.68,1.39-1.07,2.88-1.18l1.22-.08V86.44h-17Z" />
    <g
       id="g81">
      <path
         id="path64"
         class="cls-1"
         d="M64.24,92.28A66.83,66.83,0,0,0,58.37,97l-2.28,2.07.09,3.68A103.85,103.85,0,0,0,66,144.1a111,111,0,0,0,20.74,30.19c2,2,8.1,7.86,8.3,7.86a77.81,77.81,0,0,0,5.58-7c5.65-7.81,9.63-16.16,11.09-23.31.16-.78.32-1.76.38-2.16l.09-.75-.62,1A108.9,108.9,0,0,1,96.6,169.45,15.41,15.41,0,0,1,95,171c-.36,0-6.15-6.41-8.57-9.47a103.53,103.53,0,0,1-8.1-11.85l-1.19-2.06c-.23-.38-.88-1.61-1.46-2.74A98.31,98.31,0,0,1,65,108.24a106.25,106.25,0,0,1-.24-13.34c.1-1.63.16-3,.13-3A2.42,2.42,0,0,0,64.24,92.28Z" />
    </g>
    <path
       id="path66"
       d="M172.52,96.19c-7,.64-11.41,5.81-10.49,12.16.74,5.15,4.83,8.26,10.84,8.27a11,11,0,0,0,8.47-3.26c1-1,1-1,.22-1.71l-.73-.66-.89.84a6.82,6.82,0,0,1-5,2.07,4.66,4.66,0,0,1-4.51-2.28c-1-1.55-1.18-2.61-1.18-5.83a14.5,14.5,0,0,1,.28-3.81A7.48,7.48,0,0,1,171,99a3.39,3.39,0,0,1,3.61-.73c.7.28,1.06.7,1.56,1.78a5.24,5.24,0,0,0,1.73,2.37,3,3,0,0,0,3.69-.38c.41-.46.45-.61.45-1.43a3.27,3.27,0,0,0-1.52-2.82c-1.62-1.21-4.85-1.84-8-1.55Z" />
    <path
       id="path68"
       class="cls-3"
       d="M72.51,120.31a46.21,46.21,0,0,0,1.79,8.46c.36,1.19.56,1.65.8,1.79s1.22.65,2.33,1.21a131.94,131.94,0,0,0,47.3,13.51,134.92,134.92,0,0,0,37.91-1.83,68.87,68.87,0,0,0,7.55-1.84c2-.88,2.33-2.5,1-4.54A70.82,70.82,0,0,0,161.37,126c-2.42-2.19-4.54-3.8-4.54-3.43,0,0,.15.31.31.65.7,1.31,3,6.42,3.65,8.2s.64,2.91-.27,3.86c-.65.68-1,.82-3.26,1.2a124.07,124.07,0,0,1-13.36,1.46,170.46,170.46,0,0,1-17.54-.28,123.51,123.51,0,0,1-34.47-8,128.14,128.14,0,0,1-15.8-7.6l-3.39-2C72.55,119.9,72.51,120,72.51,120.31Z" />
  </g>
  <rect
     class="cls-4"
     width="200"
     height="200"
     id="rect127" />
</svg>
